<svg width="25" height="22" viewBox="0 0 25 22" fill="none" xmlns="http://www.w3.org/2000/svg">
<path d="M22.2222 0.31543H2.77778C1.25 0.31543 0 1.36686 0 2.65194V19.0075C0 20.2937 1.25 21.344 2.77778 21.344H12.5V13.1662H9.72222V10.2748H12.5V7.87987C12.5 5.35177 14.1833 3.57602 17.7306 3.57602L20.2347 3.57836V6.62166H18.5722C17.1917 6.62166 16.6667 7.49318 16.6667 8.30161V10.276H20.2333L19.4444 13.1662H16.6667V21.344H22.2222C23.75 21.344 25 20.2937 25 19.0075V2.65194C25 1.36686 23.75 0.31543 22.2222 0.31543Z" fill="#4DFFFF"/>
</svg>
