<svg width="25" height="22" viewBox="0 0 25 22" fill="none" xmlns="http://www.w3.org/2000/svg">
<path d="M22.3214 0.31543H2.67857C1.19978 0.31543 0 1.32461 0 2.56849V19.0909C0 20.3348 1.19978 21.344 2.67857 21.344H22.3214C23.8002 21.344 25 20.3348 25 19.0909V2.56849C25 1.32461 23.8002 0.31543 22.3214 0.31543ZM15.4743 18.3258C15.0056 18.3962 14.8326 18.1522 14.8326 17.9503C14.8326 17.6968 14.8438 16.4013 14.8438 15.3546C14.8438 14.6224 14.5536 14.1577 14.2132 13.9136C16.2779 13.7211 18.4542 13.4817 18.4542 10.4824C18.4542 9.62808 18.0915 9.20093 17.5 8.65175C17.5949 8.44991 17.9129 7.6191 17.4051 6.53951C16.6295 6.33767 14.8549 7.37971 14.8549 7.37971C14.1183 7.20604 13.3203 7.11685 12.5335 7.11685C11.7467 7.11685 10.9487 7.20604 10.2121 7.37971C10.2121 7.37971 8.4375 6.33767 7.66183 6.53951C7.15402 7.61441 7.46652 8.44522 7.56696 8.65175C6.97545 9.20093 6.69643 9.62808 6.69643 10.4824C6.69643 13.4677 8.7779 13.7211 10.8426 13.9136C10.5748 14.1154 10.3348 14.4628 10.2511 14.9603C9.72098 15.1622 8.36496 15.5095 7.5558 14.3079C7.04799 13.5662 6.13281 13.5052 6.13281 13.5052C5.22879 13.4958 6.07143 13.984 6.07143 13.984C6.67411 14.2187 7.09821 15.1199 7.09821 15.1199C7.63951 16.514 10.2288 16.0446 10.2288 16.0446C10.2288 16.6971 10.24 17.7579 10.24 17.9503C10.24 18.1522 10.0725 18.3962 9.59821 18.3258C5.91518 17.2885 3.33705 14.3407 3.33705 10.8954C3.33705 6.58645 7.25446 3.31482 12.3772 3.31482C17.5 3.31482 21.6518 6.58645 21.6518 10.8954C21.6574 14.3407 19.1574 17.2932 15.4743 18.3258ZM10 15.4579C9.89397 15.4766 9.79353 15.4391 9.78237 15.3781C9.77121 15.3077 9.84375 15.2466 9.94978 15.2279C10.0558 15.2185 10.1563 15.256 10.1674 15.3171C10.1842 15.3781 10.1116 15.4391 10 15.4579ZM9.46987 15.4156C9.46987 15.4766 9.38616 15.5283 9.27455 15.5283C9.15179 15.5377 9.06808 15.486 9.06808 15.4156C9.06808 15.3546 9.15179 15.303 9.26339 15.303C9.36942 15.2936 9.46987 15.3452 9.46987 15.4156ZM8.70536 15.364C8.68304 15.425 8.57143 15.4532 8.47656 15.425C8.37054 15.4062 8.29799 15.3358 8.32031 15.2748C8.34263 15.2138 8.45424 15.1856 8.54911 15.2044C8.66071 15.2326 8.73326 15.303 8.70536 15.364ZM8.01897 15.1105C7.96875 15.1622 7.86272 15.1528 7.77902 15.0824C7.69531 15.0213 7.67299 14.9322 7.72879 14.8899C7.77902 14.8383 7.88504 14.8477 7.96875 14.9181C8.04129 14.9791 8.0692 15.073 8.01897 15.1105ZM7.51116 14.6834C7.46094 14.7115 7.36607 14.6834 7.30469 14.613C7.2433 14.5426 7.2433 14.4628 7.30469 14.4299C7.36607 14.3877 7.46094 14.4205 7.51116 14.4909C7.57254 14.5613 7.57254 14.6458 7.51116 14.6834ZM7.14844 14.2281C7.09821 14.2703 7.01451 14.2468 6.95312 14.1999C6.89174 14.1389 6.88058 14.0685 6.9308 14.0356C6.98103 13.9934 7.06473 14.0168 7.12612 14.0638C7.1875 14.1248 7.19866 14.1952 7.14844 14.2281ZM6.77455 13.8807C6.75223 13.923 6.67969 13.9324 6.6183 13.8995C6.54576 13.8713 6.51228 13.8197 6.5346 13.7775C6.55692 13.7493 6.6183 13.7352 6.69085 13.7587C6.76339 13.7915 6.79688 13.8432 6.77455 13.8807Z" fill="#4DFFFF"/>
</svg>
