<svg width="25" height="22" viewBox="0 0 25 22" fill="none" xmlns="http://www.w3.org/2000/svg">
<path d="M12.5 8.01057C11.9113 8.01075 11.336 8.15775 10.8466 8.43297C10.3573 8.7082 9.97593 9.09929 9.75081 9.5568C9.52569 10.0143 9.46691 10.5177 9.58188 11.0033C9.69686 11.4889 9.98044 11.9349 10.3968 12.285C10.8131 12.6351 11.3435 12.8734 11.9208 12.97C12.4982 13.0665 13.0966 13.0168 13.6405 12.8273C14.1843 12.6378 14.6491 12.3169 14.9761 11.9052C15.3031 11.4935 15.4777 11.0094 15.4777 10.5143C15.4771 9.85024 15.1631 9.21356 14.6048 8.74411C14.0465 8.27465 13.2894 8.01082 12.5 8.01057V8.01057ZM19.4593 6.08608C19.3077 5.76307 19.0789 5.46969 18.787 5.22414C18.4951 4.9786 18.1463 4.78613 17.7623 4.65867C16.5904 4.26955 13.8002 4.35685 12.5 4.35685C11.1998 4.35685 8.41239 4.26626 7.23717 4.65867C6.85315 4.78613 6.50436 4.9786 6.21245 5.22414C5.92053 5.46969 5.69171 5.76307 5.54018 6.08608C5.07812 7.07179 5.18136 9.42108 5.18136 10.5138C5.18136 11.6065 5.07812 13.953 5.54241 14.942C5.69394 15.265 5.92276 15.5584 6.21468 15.8039C6.5066 16.0495 6.85538 16.242 7.2394 16.3694C8.41127 16.7585 11.2015 16.6712 12.5022 16.6712C13.803 16.6712 16.5893 16.7618 17.7645 16.3694C18.1485 16.242 18.4973 16.0495 18.7892 15.8039C19.0811 15.5584 19.31 15.265 19.4615 14.942C19.9275 13.9563 19.8203 11.607 19.8203 10.5143C19.8203 9.42155 19.9275 7.07555 19.4615 6.08655L19.4593 6.08608ZM12.5 14.3633C11.595 14.3633 10.7103 14.1375 9.95777 13.7146C9.20527 13.2917 8.61876 12.6905 8.27243 11.9872C7.92609 11.2839 7.83547 10.51 8.01203 9.76338C8.18859 9.01675 8.6244 8.33093 9.26435 7.79264C9.90431 7.25435 10.7197 6.88777 11.6073 6.73926C12.4949 6.59075 13.415 6.66697 14.2511 6.95829C15.0873 7.24961 15.8019 7.74294 16.3047 8.3759C16.8075 9.00886 17.0759 9.75302 17.0759 10.5143C17.0766 11.0199 16.9588 11.5207 16.7291 11.9879C16.4994 12.4552 16.1623 12.8798 15.7373 13.2373C15.3122 13.5948 14.8075 13.8783 14.252 14.0715C13.6965 14.2647 13.1011 14.3639 12.5 14.3633V14.3633ZM17.2645 7.40224C17.0532 7.40233 16.8467 7.34972 16.671 7.25106C16.4952 7.1524 16.3583 7.01212 16.2773 6.84796C16.1964 6.68381 16.1752 6.50316 16.2163 6.32885C16.2575 6.15455 16.3592 5.99442 16.5085 5.86873C16.6579 5.74304 16.8482 5.65743 17.0554 5.62272C17.2626 5.58802 17.4774 5.60578 17.6726 5.67377C17.8678 5.74175 18.0346 5.8569 18.152 6.00466C18.2694 6.15241 18.332 6.32612 18.332 6.50383C18.3326 6.62184 18.3055 6.73879 18.2522 6.84796C18.199 6.95714 18.1206 7.0564 18.0216 7.14004C17.9227 7.22368 17.805 7.29006 17.6755 7.33538C17.5459 7.3807 17.407 7.40406 17.2667 7.40412L17.2645 7.40224ZM22.3214 0H2.67857C1.96817 0 1.28686 0.237375 0.784535 0.659906C0.282206 1.08244 0 1.65551 0 2.25306L0 18.7755C0 19.373 0.282206 19.9461 0.784535 20.3687C1.28686 20.7912 1.96817 21.0286 2.67857 21.0286H22.3214C23.0318 21.0286 23.7131 20.7912 24.2155 20.3687C24.7178 19.9461 25 19.373 25 18.7755V2.25306C25 1.65551 24.7178 1.08244 24.2155 0.659906C23.7131 0.237375 23.0318 0 22.3214 0V0ZM21.3661 13.6122C21.2941 14.8153 20.9676 15.8813 19.9235 16.7571C18.8795 17.633 17.6133 17.9132 16.1847 17.9705C14.7109 18.0404 10.2924 18.0404 8.81864 17.9705C7.38839 17.9099 6.12556 17.6349 5.0798 16.7571C4.03404 15.8794 3.70536 14.8129 3.63728 13.6122C3.55413 12.3721 3.55413 8.65504 3.63728 7.41632C3.70926 6.21328 4.03181 5.1473 5.0798 4.27143C6.12779 3.39555 7.39397 3.11861 8.81864 3.06135C10.2924 2.99141 14.7109 2.99141 16.1847 3.06135C17.615 3.1219 18.8817 3.39696 19.9235 4.27471C20.9654 5.15247 21.298 6.21891 21.3661 7.42195C21.4492 8.65738 21.4492 12.3712 21.3661 13.6122Z" fill="#4DFFFF"/>
</svg>
