<svg width="25" height="22" viewBox="0 0 25 22" fill="none" xmlns="http://www.w3.org/2000/svg">
<path d="M4.89907 0.31543C2.20496 0.31543 0 2.17008 0 4.43624V17.2238C0 19.49 2.20491 21.344 4.89907 21.344H20.1017C22.7959 21.344 25 19.49 25 17.2238V4.43624C25 2.17012 22.7959 0.31543 20.1017 0.31543H4.89907ZM6.13125 3.78556C7.42302 3.78556 8.21869 4.49887 8.24325 5.4365C8.24325 6.35343 7.42297 7.08679 6.10627 7.08679H6.08203C4.81485 7.08679 3.99582 6.35347 3.99582 5.4365C3.99582 4.49889 4.83964 3.78556 6.13123 3.78556H6.13125ZM17.2631 8.16794C19.7474 8.16794 21.6098 9.53375 21.6098 12.4688V17.9481H17.8343V12.8362C17.8343 11.5516 17.2879 10.6752 15.9216 10.6752C14.8785 10.6752 14.2568 11.2659 13.9838 11.8365C13.8841 12.0407 13.8596 12.3258 13.8596 12.6114V17.9481H10.0841C10.0841 17.9481 10.1337 9.28866 10.0841 8.39203H13.8604V9.74527C14.3621 9.09415 15.2595 8.16792 17.2631 8.16792V8.16794ZM4.21852 8.39273H7.99399V17.9481H4.21852V8.39273V8.39273Z" fill="#4DFFFF"/>
</svg>
